<svg xmlns="http://www.w3.org/2000/svg" width="597" height="786" viewBox="0 0 597 786" version="1.1"><path d="M 277.447 3.015 C 238.735 7.915, 202.372 25.837, 174.003 54 C 167.631 60.325, 161.049 67.300, 159.376 69.500 C 140.182 94.733, 129.125 118.849, 122.887 149.086 C 119.876 163.682, 119.135 193.171, 121.391 208.559 C 125.012 233.247, 133.529 257.646, 145.282 277 C 157.820 297.647, 170.184 311.848, 190.341 328.757 C 202.104 338.625, 225.136 351.139, 242.500 357.099 L 253.500 360.874 153.427 360.687 L 53.353 360.500 49.098 357.684 C 38.822 350.883, 38.367 334.983, 48.241 327.718 C 52.774 324.382, 55.185 323.580, 74.500 318.982 C 105.006 311.719, 108.406 310.898, 116.068 308.937 C 120.231 307.872, 124.506 306.993, 125.568 306.985 C 129.688 306.952, 130.281 305.563, 127.954 301.400 C 124.441 295.116, 110.743 271.542, 110.317 271.047 C 110.103 270.798, 107.132 271.360, 103.714 272.295 C 100.296 273.230, 88.725 276.289, 78 279.093 C 37.307 289.730, 29.458 292.833, 20.123 301.974 C 14.452 307.527, 7.938 318.100, 5.322 326 C 3.583 331.250, 3.500 340.966, 3.500 539.500 L 3.500 747.500 7.113 755 C 12.673 766.542, 22.663 775.686, 34.767 780.310 L 40.500 782.500 284 782.784 C 467.572 782.998, 528.607 782.780, 532 781.897 C 537.916 780.358, 547.484 775.571, 551.870 771.956 C 554.511 769.778, 555.698 769.335, 556.688 770.156 C 557.563 770.882, 558 770.899, 558 770.206 C 558 769.634, 557.438 768.979, 556.750 768.750 C 555.941 768.480, 556.705 766.961, 558.912 764.447 C 560.789 762.310, 563.710 757.622, 565.403 754.030 L 568.481 747.500 568.816 716.250 L 569.151 685 503.325 684.996 C 432.053 684.992, 427.644 684.726, 411.477 679.473 C 389.368 672.288, 369.609 657.588, 356.288 638.414 C 347.778 626.166, 342.654 613.397, 339.948 597.696 C 338.171 587.383, 339.184 565.471, 341.945 554.500 C 350.240 521.537, 376.249 492.959, 407.501 482.468 C 425.104 476.559, 422.681 476.723, 498.800 476.284 L 569.099 475.878 568.800 433.189 L 568.500 390.500 565.886 385 C 562.297 377.451, 557.858 372.172, 551.441 367.823 C 540.947 360.711, 545.743 361.013, 441.346 360.884 C 389.731 360.820, 348.400 360.543, 349.500 360.268 C 364.462 356.523, 386.098 346.767, 400.593 337.228 C 411.090 330.319, 428.676 315.428, 435.870 307.356 C 445.812 296.201, 460.121 274.429, 466.007 261.500 C 468.371 256.309, 472.141 246.473, 475.016 238 C 481.502 218.880, 484.351 181.494, 481.075 158.500 C 475.394 118.632, 459.191 85.058, 431.849 56.500 C 429.216 53.750, 426.936 51.050, 426.781 50.500 C 426.626 49.950, 426.117 49.628, 425.649 49.784 C 425.180 49.940, 422.930 48.348, 420.649 46.247 C 400.226 27.439, 367.293 11.570, 335 4.976 C 323.108 2.548, 290.038 1.421, 277.447 3.015 M 289.500 36.577 C 268.049 39.570, 263.185 40.757, 248.205 46.657 C 237.078 51.039, 232.976 53.162, 221.888 60.282 C 176.594 89.363, 150.453 143.939, 155.937 197.977 C 160.303 241.007, 181.976 279.242, 216.629 305.047 C 220.958 308.271, 225.625 311.481, 227 312.181 C 228.375 312.882, 231.226 314.508, 233.336 315.794 C 239.160 319.346, 258.818 326.762, 268.177 328.938 C 300.358 336.419, 331.656 333.052, 363.075 318.727 C 395.910 303.757, 426.143 269.890, 438.818 233.881 C 444.933 216.506, 446.468 206.620, 446.485 184.500 C 446.501 163.670, 445.755 157.382, 441.503 142.500 C 426.243 89.083, 380.550 47.967, 325.981 38.550 C 316.682 36.945, 295.189 35.783, 289.500 36.577 M 365.500 107.072 C 361.199 108.439, 359.024 110.603, 354.126 118.389 C 351.743 122.179, 344.721 132.979, 338.521 142.389 C 332.321 151.800, 322.625 166.602, 316.973 175.283 C 311.322 183.964, 306.326 190.939, 305.872 190.783 C 305.417 190.627, 296.203 181.950, 285.396 171.500 C 261.536 148.429, 259.176 146.668, 252.902 147.250 C 247.266 147.774, 244.248 149.948, 240.481 156.197 C 238.889 158.839, 237.230 161, 236.793 161 C 236.357 161, 236 161.461, 236 162.024 C 236 163.020, 223.926 181.288, 208.623 203.443 C 203.171 211.337, 200.884 215.590, 200.417 218.707 C 198.588 230.899, 210.948 240.463, 222.282 235.627 C 227.442 233.425, 228.905 231.630, 243.990 209 C 251.872 197.175, 258.479 187.307, 258.672 187.072 C 258.865 186.836, 263.856 191.322, 269.762 197.041 C 303.379 229.592, 302.624 229, 310.513 229 C 318.366 229, 321.473 226.654, 329.029 215.017 C 332.785 209.233, 337.262 202.475, 338.979 200 C 340.695 197.525, 347.320 187.400, 353.702 177.500 C 360.083 167.600, 369.427 153.200, 374.467 145.500 C 385.926 127.991, 385.122 129.392, 386.038 125.333 C 388.552 114.187, 376.586 103.548, 365.500 107.072 M 421.500 517.406 C 412.903 520.162, 409.082 522.099, 402 527.294 C 391.292 535.149, 382.268 547.899, 377.879 561.375 C 374.838 570.714, 374.585 589.246, 377.372 598.500 C 380.410 608.585, 385.977 617.963, 393.793 626.162 C 402.356 635.144, 410.171 640.090, 422.134 644.098 L 430.795 647 509.648 646.978 C 585.856 646.956, 588.584 646.891, 591 645.035 L 593.500 643.115 593.784 582.807 C 593.940 549.638, 593.827 521.519, 593.533 520.320 C 592.152 514.700, 596.864 514.993, 509.179 515.081 L 428.500 515.163 421.500 517.406 M 434.050 550.538 C 426.516 552.644, 418.938 558.631, 414.847 565.709 C 411.726 571.110, 411.500 572.107, 411.507 580.500 C 411.515 590.904, 413.311 595.392, 420.099 601.980 C 426.929 608.609, 432.013 610.500, 443 610.500 C 451.109 610.500, 453.202 610.141, 457.294 608.051 C 471.624 600.730, 478.140 585.474, 473.413 570.312 C 472.010 565.810, 470.350 563.259, 466.051 558.995 C 457.477 550.492, 445.521 547.332, 434.050 550.538" stroke="none" fill="#fcbc14" fill-rule="evenodd"/></svg>